<svg width="1200" height="700" viewBox="0 0 1200 700" xmlns="http://www.w3.org/2000/svg">
  <rect width="1200" height="700" fill="#02060d" />
  <rect width="90" height="700" fill="#050a18" />
  <rect x="80" y="0" width="1120" height="80" fill="#0c111f" />
  <text x="110" y="45" fill="#f8fbff" font-family="Inter" font-size="28" font-weight="600">Map Management</text>
  <rect x="110" y="120" width="980" height="460" rx="24" fill="#0d1324" stroke="#1c1f2b" stroke-width="1.5" />
  <rect x="150" y="180" width="360" height="72" rx="20" fill="#0b1221" stroke="#1f2a40" stroke-width="1.2" />
  <text x="175" y="225" fill="#94a3b8" font-family="Inter" font-size="18">Upload new SVG plan</text>
  <rect x="150" y="280" width="360" height="72" rx="20" fill="#0b1221" stroke="#1f2a40" stroke-width="1.2" />
  <text x="175" y="325" fill="#94a3b8" font-family="Inter" font-size="18">Layer controls</text>
  <rect x="150" y="380" width="360" height="72" rx="20" fill="#0b1221" stroke="#1f2a40" stroke-width="1.2" />
  <text x="175" y="425" fill="#94a3b8" font-family="Inter" font-size="18">Export configuration</text>
  <rect x="620" y="220" width="360" height="200" rx="16" fill="#0b1221" stroke="#1f2a40" stroke-width="1.2" />
  <text x="650" y="260" fill="#f8fbff" font-family="Inter" font-size="16">Preview</text>
  <rect x="660" y="300" width="260" height="100" rx="12" fill="#070e1c" stroke="#18203a" stroke-width="1" />
  <rect x="710" y="330" width="40" height="40" rx="8" fill="#3b82f6" />
  <rect x="780" y="330" width="40" height="40" rx="8" fill="#fcd34d" />
  <text x="118" y="620" fill="#94a3b8" font-family="Inter" font-size="12">Import maps, set anchor defaults, and publish layers for streaming.</text>
</svg>
